<?xml version="1.0" standalone="no"?>
<!DOCTYPE svg PUBLIC "-//W3C//DTD SVG 20010904//EN"
 "http://www.w3.org/TR/2001/REC-SVG-20010904/DTD/svg10.dtd">
<svg version="1.0" xmlns="http://www.w3.org/2000/svg"
 width="512.000000pt" height="512.000000pt" viewBox="0 0 512.000000 512.000000"
 preserveAspectRatio="xMidYMid meet">
<metadata>
Created by potrace 1.11, written by Peter Selinger 2001-2013
</metadata>
<g transform="translate(0.000000,512.000000) scale(0.100000,-0.100000)"
fill="#000000" stroke="none">
<path d="M3162 5037 c-12 -7 -397 -387 -856 -845 l-834 -833 19 -48 c13 -37
18 -71 16 -133 -2 -70 -7 -93 -34 -148 -96 -196 -318 -273 -514 -178 -195 94
-266 357 -146 544 91 143 284 210 439 153 l49 -18 605 606 c629 630 611 610
605 686 -6 72 -104 120 -169 84 -13 -7 -206 -196 -430 -418 -224 -223 -423
-415 -442 -426 -19 -12 -51 -30 -70 -41 -19 -10 -91 -52 -160 -92 -175 -101
-459 -264 -506 -290 -162 -90 -275 -247 -311 -430 -11 -53 -10 -1762 0 -1803
16 -61 49 -137 85 -195 62 -102 121 -157 232 -220 41 -24 82 -47 90 -52 15
-10 96 -56 160 -93 19 -10 88 -50 152 -88 64 -38 121 -69 127 -69 5 0 11 -3
13 -7 2 -5 18 -16 36 -26 17 -9 47 -25 64 -35 18 -9 35 -19 38 -22 3 -3 16
-11 30 -19 14 -8 126 -73 250 -144 124 -72 262 -151 307 -177 180 -104 231
-119 393 -115 90 2 128 7 175 25 48 18 231 119 473 261 15 9 47 27 72 41 118
67 366 211 375 217 6 5 35 22 65 38 30 17 165 94 300 172 264 153 315 193 385
301 79 123 105 221 104 395 -1 61 0 119 0 130 1 12 66 87 161 183 89 89 165
172 169 185 11 29 4 86 -15 115 -19 30 -76 54 -112 48 -15 -2 -31 -5 -37 -5
-5 -1 -152 -143 -326 -317 l-317 -316 21 -47 c17 -36 21 -66 22 -141 0 -83 -4
-102 -27 -152 -113 -241 -426 -300 -611 -116 -48 48 -94 131 -105 191 -25 135
22 278 121 362 40 35 104 70 148 82 47 13 172 11 212 -3 l40 -14 448 448 c386
387 448 453 454 485 13 66 -16 113 -86 143 -57 25 -83 4 -424 -335 -176 -177
-327 -321 -335 -322 -8 0 -23 -2 -33 -4 -23 -4 -77 14 -96 33 -41 40 -43 121
-4 165 10 11 231 233 490 493 260 260 477 484 482 497 33 87 -44 179 -135 163
-35 -7 -93 -61 -532 -500 l-494 -493 17 -39 c22 -50 26 -150 10 -219 -52 -225
-308 -352 -517 -257 -178 80 -269 278 -212 459 64 204 280 316 482 249 l52
-17 732 732 c403 403 741 744 750 758 38 56 12 141 -53 170 -81 37 -53 60
-744 -628 -346 -346 -639 -632 -650 -636 -93 -37 -189 46 -163 142 6 23 117
140 412 436 307 307 406 412 411 436 10 46 -3 86 -38 120 -24 25 -39 31 -71
31 -23 -1 -51 -6 -64 -13 -12 -7 -438 -428 -946 -936 l-924 -923 18 -41 c10
-23 16 -45 14 -49 -3 -4 -1 -8 3 -8 17 0 11 -152 -7 -206 -85 -245 -375 -339
-582 -187 -107 78 -159 186 -153 320 6 156 93 278 241 338 65 27 176 31 246
10 l42 -12 798 798 c439 439 803 811 809 826 15 40 2 97 -31 128 -34 32 -95
43 -134 23 -14 -7 -264 -251 -554 -541 -290 -290 -532 -528 -537 -528 -6 -1
-21 -3 -35 -5 -14 -2 -42 2 -62 8 -29 9 -42 20 -58 53 -25 52 -25 72 0 112 10
18 329 342 708 721 576 577 690 695 695 723 9 51 -2 88 -36 122 -25 25 -102
33 -135 14z"/>
<path d="M1092 3322 c-26 -4 -92 -68 -93 -91 0 -9 -2 -24 -4 -34 -4 -24 14
-77 35 -99 25 -28 87 -49 122 -43 74 13 127 88 114 160 -9 45 -48 91 -89 103
-32 10 -42 11 -85 4z"/>
<path d="M3055 2519 c-108 -30 -137 -177 -48 -243 14 -11 47 -21 72 -23 129
-11 196 145 99 234 -30 27 -85 42 -123 32z"/>
<path d="M1521 2352 c-126 -64 -82 -255 58 -255 105 0 174 121 117 207 -40 61
-111 81 -175 48z"/>
<path d="M3505 1562 c-83 -28 -124 -120 -85 -193 41 -77 132 -98 202 -47 81
57 71 180 -18 228 -33 17 -69 22 -99 12z"/>
</g>
</svg>
